Coordinates
version=1
nRows=7
nColumns=60
inDegrees=yes

Units are S.I. units (second, meters, Newtons, ...)
If the header above contains a line with 'inDegrees', this indicates whether rotational values are in degrees (yes) or radians (no).

endheader
time	pelvis_tilt	pelvis_list	pelvis_rotation	pelvis_tx	pelvis_ty	pelvis_tz	hip_flexion_r	hip_adduction_r	hip_rotation_r	knee_angle_r_beta	knee_angle_r	ankle_angle_r	subtalar_angle_r	mtp_angle_r	hip_flexion_l	hip_adduction_l	hip_rotation_l	knee_angle_l_beta	knee_angle_l	ankle_angle_l	subtalar_angle_l	mtp_angle_l	L5_S1_Flex_Ext	L5_S1_Lat_Bending	L5_S1_axial_rotation	L4_L5_Flex_Ext	L4_L5_Lat_Bending	L4_L5_axial_rotation	L3_L4_Flex_Ext	L3_L4_Lat_Bending	L3_L4_axial_rotation	L2_L3_Flex_Ext	L2_L3_Lat_Bending	L2_L3_axial_rotation	L1_L2_Flex_Ext	L1_L2_Lat_Bending	L1_L2_axial_rotation	L1_T12_Flex_Ext	L1_T12_Lat_Bending	L1_T12_axial_rotation	Abs_r3	Abs_r2	Abs_r1	Abs_t1	Abs_t2	arm_flex_r	arm_add_r	arm_rot_r	elbow_flex_r	pro_sup_r	wrist_flex_r	wrist_dev_r	arm_flex_l	arm_add_l	arm_rot_l	elbow_flex_l	pro_sup_l	wrist_flex_l	wrist_dev_l
     27.12000000	      0.89145442	     15.96675168	     92.01128425	      0.40512920	      0.94257863	      0.28895706	     -4.93952703	     -3.73598231	     -1.71296450	      0.32588632	    -18.67191058	     11.36890089	      0.00000000	      0.00000000	     -3.37488966	     -7.41988319	     -2.47493895	      0.33907372	    -19.42749316	     12.47956156	      0.00000000	      0.00000000	     -6.92557155	      0.03915468	     -0.32661279	    -12.86147892	      0.05207572	     -0.34702609	    -11.37802149	      0.09520068	     -0.34702609	     -7.91523572	      0.09520068	     -0.28578619	     -6.43108574	      0.07984422	     -0.26537289	     -3.95727158	      0.06065059	     -0.24495959	    -49.46866499	      0.44292553	     -1.81652234	      0.00000000	      0.00000000	     14.60224273	    -26.49794858	      7.90809732	     92.21784053	     66.00022926	     -8.28433022	     30.11683458	     17.12643283	    -30.57108738	      8.01086185	     91.54246732	     68.27719574	      4.26658344	     23.10150747
     27.13000000	      0.87976134	     16.09609512	     92.02757350	      0.40518516	      0.94284310	      0.28728597	     -5.20029683	     -3.73569331	     -1.71613580	      0.32649238	    -18.70663555	     11.36261977	      0.00000000	      0.00000000	     -3.62549087	     -7.42950796	     -2.48337112	      0.33963900	    -19.45988143	     12.46799603	      0.00000000	      0.00000000	     -6.83602526	      0.03851837	     -0.32632936	    -12.69518250	      0.05122943	     -0.34672495	    -11.23090589	      0.09365356	     -0.34672495	     -7.81289326	      0.09365356	     -0.28553819	     -6.34793305	      0.07854666	     -0.26514261	     -3.90610483	      0.05966495	     -0.24474702	    -48.82904479	      0.43572748	     -1.81494600	      0.00000000	      0.00000000	     14.85699307	    -26.57632250	      7.79247426	     92.38266878	     65.99468728	     -8.28138700	     30.11507634	     17.36582968	    -30.66013302	      7.90680662	     91.73278540	     68.28043314	      4.26180048	     23.09966088
     27.14000000	      0.76484361	     16.44427924	     92.02045593	      0.40522071	      0.94352856	      0.28555971	     -5.97757386	     -3.83152894	     -1.73503549	      0.31663222	    -18.14169008	     11.46489538	      0.00000000	      0.00000000	     -4.44086006	     -7.31566881	     -2.61600122	      0.32892145	    -18.84581088	     12.35045495	      0.00000000	      0.00000000	     -6.80173502	      0.01919312	     -0.32708601	    -12.63150210	      0.02552685	     -0.34752889	    -11.17457046	      0.04666615	     -0.34752889	     -7.77370295	      0.04666615	     -0.28620026	     -6.31609114	      0.03913861	     -0.26575739	     -3.88651139	      0.02973014	     -0.24531451	    -48.58411305	      0.21711641	     -1.81915429	      0.00000000	      0.00000000	     15.32336026	    -26.75986806	      7.68792750	     92.75068970	     63.71024662	     -7.52494448	     32.95446639	     17.84792100	    -31.09296007	      8.28986315	     92.54468450	     67.62159847	      2.83222987	     26.32988958
     27.15000000	      0.74742934	     16.46873495	     92.05248689	      0.40504929	      0.94367860	      0.28399957	     -6.14168479	     -3.85876051	     -1.78742370	      0.31600152	    -18.10555340	     11.49772471	      0.00000000	      0.00000000	     -4.58702715	     -7.29394289	     -2.67362016	      0.32837574	    -18.81454409	     12.37756233	      0.00000000	      0.00000000	     -6.70994428	      0.02269360	     -0.32839278	    -12.46103751	      0.03018249	     -0.34891733	    -11.02376745	      0.05517723	     -0.34891733	     -7.66879531	      0.05517723	     -0.28734369	     -6.23085425	      0.04627680	     -0.26681914	     -3.83406216	      0.03515239	     -0.24629459	    -47.92846097	      0.25671458	     -1.82642214	      0.00000000	      0.00000000	     15.70037357	    -26.91061210	      7.60305247	     92.88067815	     63.72123341	     -7.50536328	     32.96471010	     18.13634833	    -31.16787999	      8.30201295	     92.75635837	     67.62819977	      2.81786288	     26.35691589
     27.16000000	      0.74619280	     16.37077750	     92.09404387	      0.40493416	      0.94368788	      0.28235385	     -6.26167310	     -3.85962388	     -1.90954086	      0.31214171	    -17.88440251	     11.59913419	      0.00000000	      0.00000000	     -4.68823169	     -7.29463115	     -2.68154307	      0.32483551	    -18.61170380	     12.45611426	      0.00000000	      0.00000000	     -6.59162331	      0.02504944	     -0.32795435	    -12.24130365	      0.03331576	     -0.34845150	    -10.82937793	      0.06090521	     -0.34845150	     -7.53356628	      0.06090521	     -0.28696006	     -6.12098140	      0.05108082	     -0.26646291	     -3.76645356	      0.03880158	     -0.24596576	    -47.08330613	      0.28336428	     -1.82398371	      0.00000000	      0.00000000	     16.16180519	    -27.21504467	      7.90487573	     92.82798808	     63.69037857	     -7.41383712	     33.11930311	     18.57909367	    -31.45000060	      8.81673535	     92.83229794	     67.57536376	      2.71685819	     26.59389048
     27.17000000	      0.72568542	     16.41614725	     92.12887148	      0.40478263	      0.94393377	      0.28101023	     -6.46197215	     -3.88092128	     -1.96798668	      0.31056759	    -17.79421220	     11.58764898	      0.00000000	      0.00000000	     -4.88943670	     -7.26819121	     -2.64815940	      0.32274126	    -18.49171185	     12.43922901	      0.00000000	      0.00000000	     -6.50896880	      0.03063329	     -0.29390181	    -12.08780596	      0.04074227	     -0.31227067	    -10.69358484	      0.07448178	     -0.31227067	     -7.43910044	      0.07448178	     -0.25716408	     -6.04422843	      0.06246740	     -0.23879522	     -3.71922477	      0.04745096	     -0.22042636	    -46.49291325	      0.34652987	     -1.63459369	      0.00000000	      0.00000000	     16.58056829	    -27.47849304	      7.75977206	     92.90108241	     62.89045284	     -6.79504243	     34.63870968	     19.61549584	    -31.57245449	      9.71646900	     92.71271313	     66.49910003	      0.84863127	     29.01925747
     27.18000000	      0.72755981	     16.38003780	     92.17736024	      0.40457545	      0.94406476	      0.27965399	     -6.59564123	     -3.88617416	     -2.09192672	      0.30803329	    -17.64900748	     11.61272518	      0.00000000	      0.00000000	     -5.03013930	     -7.25975647	     -2.63792318	      0.31944695	    -18.30296203	     12.47843412	      0.00000000	      0.00000000	     -6.42166494	      0.03670997	     -0.29953904	    -11.92567396	      0.04882426	     -0.31826022	    -10.55015333	      0.08925661	     -0.31826022	     -7.33932086	      0.08925661	     -0.26209666	     -5.96315806	      0.07485896	     -0.24337547	     -3.66933935	      0.05686374	     -0.22465428	    -45.86931051	      0.41527049	     -1.66594625	      0.00000000	      0.00000000	     17.23444310	    -27.74495617	      8.07149841	     92.87338478	     62.88051274	     -6.73472718	     34.69582278	     20.11879815	    -31.72945502	     10.03854846	     92.71511500	     66.47954420	      0.75196002	     29.11187304
